<?xml version="1.0" encoding="UTF-8" standalone="no"?>
<!-- Created with Inkscape (http://www.inkscape.org/) -->

<svg
   xmlns:dc="http://purl.org/dc/elements/1.1/"
   xmlns:cc="http://creativecommons.org/ns#"
   xmlns:rdf="http://www.w3.org/1999/02/22-rdf-syntax-ns#"
   xmlns:svg="http://www.w3.org/2000/svg"
   xmlns="http://www.w3.org/2000/svg"
   xmlns:sodipodi="http://sodipodi.sourceforge.net/DTD/sodipodi-0.dtd"
   xmlns:inkscape="http://www.inkscape.org/namespaces/inkscape"
   width="256"
   height="256"
   id="svg2"
   version="1.1"
   inkscape:version="0.92.4 (5da689c313, 2019-01-14)"
   sodipodi:docname="app.svg"
   inkscape:export-filename="C:\workspace\code\Tooling\ECGWareHouse\aecg-suite\aecgviewer-gui\src\aecgviewer\resources\app.png"
   inkscape:export-xdpi="96"
   inkscape:export-ydpi="96">
  <defs
     id="defs4" />
  <sodipodi:namedview
     id="base"
     pagecolor="#ffffff"
     bordercolor="#666666"
     borderopacity="1.0"
     inkscape:pageopacity="0.0"
     inkscape:pageshadow="2"
     inkscape:zoom="1.979899"
     inkscape:cx="-145.33462"
     inkscape:cy="135.83483"
     inkscape:document-units="px"
     inkscape:current-layer="layer3"
     showgrid="false"
     inkscape:window-width="2560"
     inkscape:window-height="1017"
     inkscape:window-x="-8"
     inkscape:window-y="-8"
     inkscape:window-maximized="1"
     borderlayer="true"
     showguides="true"
     inkscape:guide-bbox="true">
    <sodipodi:guide
       position="-15.357143,2.5"
       orientation="0,256"
       id="guide3148"
       inkscape:locked="false" />
    <sodipodi:guide
       position="253.57143,260.71429"
       orientation="-256,0"
       id="guide3150"
       inkscape:locked="false" />
    <sodipodi:guide
       position="263.92857,252.85714"
       orientation="0,-256"
       id="guide3152"
       inkscape:locked="false" />
    <sodipodi:guide
       position="2.8571429,256"
       orientation="256,0"
       id="guide3154"
       inkscape:locked="false" />
  </sodipodi:namedview>
  <metadata
     id="metadata7">
    <rdf:RDF>
      <cc:Work
         rdf:about="">
        <dc:format>image/svg+xml</dc:format>
        <dc:type
           rdf:resource="http://purl.org/dc/dcmitype/StillImage" />
        <dc:title />
      </cc:Work>
    </rdf:RDF>
  </metadata>
  <g
     inkscape:groupmode="layer"
     id="layer4"
     inkscape:label="Grid"
     sodipodi:insensitive="true"
     style="display:inline">
    <rect
       style="fill:#ffffff;fill-opacity:1;stroke:none;stroke-width:1;stroke-miterlimit:4;stroke-dasharray:none;stroke-opacity:1"
       id="rect3156"
       width="250.71429"
       height="250.35715"
       x="2.8571429"
       y="3.1428599"
       rx="4.9534998"
       ry="4.9866271" />
    <path
       style="fill:#ff9c00;fill-opacity:1;stroke:#ff9c00;stroke-width:5.32774353;stroke-linecap:butt;stroke-linejoin:miter;stroke-miterlimit:4;stroke-dasharray:none;stroke-dashoffset:0;stroke-opacity:1"
       d="M 5.1066675,15.68912 H 250.98921"
       id="path3873"
       inkscape:connector-curvature="0" />
    <path
       style="fill:#ff9c00;fill-opacity:1;stroke:#ff9c00;stroke-width:5.32774353;stroke-linecap:butt;stroke-linejoin:miter;stroke-miterlimit:4;stroke-dasharray:10.65548813, 10.65548813;stroke-dashoffset:0;stroke-opacity:1"
       d="M 5.1066675,69.50764 H 250.98921"
       id="path3873-2"
       inkscape:connector-curvature="0" />
    <path
       style="fill:#ff9c00;fill-opacity:1;stroke:#ff9c00;stroke-width:5.32774353;stroke-linecap:butt;stroke-linejoin:miter;stroke-miterlimit:4;stroke-dasharray:none;stroke-dashoffset:0;stroke-opacity:1"
       d="M 5.1066675,122.98965 H 250.98921"
       id="path3873-2-2"
       inkscape:connector-curvature="0" />
    <path
       style="fill:#ff9c00;fill-opacity:1;stroke:#ff9c00;stroke-width:5.32774353;stroke-linecap:butt;stroke-linejoin:miter;stroke-miterlimit:4;stroke-dasharray:10.65548813, 10.65548813;stroke-dashoffset:0;stroke-opacity:1"
       d="M 5.1066675,175.79878 H 250.98921"
       id="path3873-2-2-8"
       inkscape:connector-curvature="0" />
    <path
       style="fill:#ff9c00;fill-opacity:1;stroke:#ff9c00;stroke-width:5.32774353;stroke-linecap:butt;stroke-linejoin:miter;stroke-miterlimit:4;stroke-dasharray:none;stroke-dashoffset:0;stroke-opacity:1"
       d="M 5.1066675,229.617 H 250.98921"
       id="path3873-2-2-8-8"
       inkscape:connector-curvature="0" />
    <path
       style="fill:#000000;fill-opacity:1;stroke:#ff9c00;stroke-width:5.32774353;stroke-linecap:butt;stroke-linejoin:miter;stroke-miterlimit:4;stroke-dasharray:none;stroke-dashoffset:0;stroke-opacity:1"
       d="M 26.297639,7.9524701 V 252.4901"
       id="path3785"
       inkscape:connector-curvature="0" />
    <path
       style="fill:none;stroke:#ff9c00;stroke-width:5.32774353;stroke-linecap:butt;stroke-linejoin:miter;stroke-miterlimit:4;stroke-dasharray:10.65548813, 10.65548813;stroke-dashoffset:0;stroke-opacity:1"
       d="M 79.443255,7.9530001 V 252.4901"
       id="path3785-6"
       inkscape:connector-curvature="0" />
    <path
       style="fill:none;stroke:#ff9c00;stroke-width:5.32774353;stroke-linecap:butt;stroke-linejoin:miter;stroke-miterlimit:4;stroke-dasharray:none;stroke-dashoffset:0;stroke-opacity:1"
       d="M 132.92523,7.9530001 V 252.4901"
       id="path3785-6-1"
       inkscape:connector-curvature="0" />
    <path
       style="fill:none;stroke:#ff9c00;stroke-width:5.32774353;stroke-linecap:butt;stroke-linejoin:miter;stroke-miterlimit:4;stroke-dasharray:10.65548813, 10.65548813;stroke-dashoffset:0;stroke-opacity:1"
       d="M 186.07085,7.9530001 V 252.4901"
       id="path3785-6-9"
       inkscape:connector-curvature="0" />
    <path
       style="fill:none;stroke:#ff9c00;stroke-width:5.32774353;stroke-linecap:butt;stroke-linejoin:miter;stroke-miterlimit:4;stroke-dasharray:none;stroke-dashoffset:0;stroke-opacity:1"
       d="M 239.55283,7.9530001 V 252.4901"
       id="path3785-6-5"
       inkscape:connector-curvature="0" />
    <text
       xml:space="preserve"
       style="font-style:normal;font-weight:normal;line-height:0%;font-family:sans-serif;letter-spacing:0px;word-spacing:0px;fill:#000000;fill-opacity:1;stroke:none"
       x="151.42857"
       y="52.42857"
       id="text3961"><tspan
         sodipodi:role="line"
         id="tspan3963"
         x="151.42857"
         y="52.42857"
         style="font-size:40px;line-height:1.25;font-family:sans-serif"> </tspan></text>
  </g>
  <g
     inkscape:groupmode="layer"
     id="layer3"
     inkscape:label="Waveform"
     sodipodi:insensitive="true"
     style="display:inline">
    <path
       style="font-style:normal;font-weight:400;font-size:11px;font-family:Cantarell;display:inline;fill:none;stroke:#0000cd;stroke-width:5.11677742;stroke-linecap:square;stroke-linejoin:bevel;stroke-miterlimit:4;stroke-opacity:1"
       d="m 7.7383913,187.70645 0.3663413,-10e-4 h 0.3664742 l 0.3665805,-0.0538 0.3666449,-0.0537 0.3666559,-0.0537 0.3666077,-0.0537 h 0.3665052 0.366911 0.366155 l 0.365935,0.0537 0.365697,0.0687 0.365478,0.0956 0.36527,0.11726 0.365117,0.13314 0.365855,0.0537 h 0.366805 l 0.366324,5.5e-4 h 0.3664 0.366511 l 0.36663,-0.0537 0.366754,-0.0537 0.366906,-0.0634 0.36705,-0.0795 0.367758,-0.0956 0.367365,-0.11188 0.367529,-0.13315 0.367695,-0.14917 0.367875,-0.17053 0.368062,-0.1918 0.367987,-0.18114 0.367422,-0.12253 h 0.367113 l 0.366774,-0.0532 0.367032,-0.0799 0.36851,-0.23976 0.370064,-0.40491 0.370322,-0.43154 0.370555,-0.45819 0.371312,-0.48483 0.370929,-0.50081 0.37105,-0.51679 0.37112,-0.52211 0.371126,-0.52212 0.371061,-0.51679 0.370938,-0.50081 0.370753,-0.4795 0.37106,-0.45287 0.370243,-0.42621 0.369925,-0.38893 0.369619,-0.35694 0.369399,-0.33033 0.370576,-0.46352 0.368855,-0.27704 0.368637,-0.25572 0.369058,-0.23443 0.368446,-0.23444 0.368482,-0.2344 0.368623,-0.2504 0.368861,-0.27705 0.369213,-0.31434 0.369516,-0.3463 0.369532,-0.3463 0.371476,-0.50081 0.370983,-0.50613 0.370406,-0.44221 0.370902,-0.49548 0.371386,-0.55196 0.371829,-0.59937 0.373116,-0.74002 0.373402,-0.77093 0.374066,-0.78317 0.373442,-0.77573 0.373181,-0.748 0.372708,-0.69581 0.372054,-0.6244 0.371231,-0.53438 0.370263,-0.42622 0.369723,-0.30901 0.368014,-0.18648 0.36672,-0.0532 0.364375,0.21312 0.363517,0.30367 0.362782,0.3836 0.362186,0.45286 0.361727,0.5008 0.361988,0.53331 0.361306,0.54716 0.361328,0.54449 0.361477,0.52745 0.361748,0.50081 0.361621,0.51146 0.361232,0.55462 0.361636,0.51147 0.362649,0.45818 0.362591,0.40491 0.363095,0.35163 0.363603,0.29303 0.364093,0.24508 0.364551,0.19711 0.364977,0.14919 0.36534,0.10661 0.366223,0.0746 0.365931,0.0532 0.365616,0.0799 0.364503,0.20246 0.365051,0.13851 0.365447,0.0959 0.365233,0.12253 0.364939,0.1545 0.365153,0.1918 0.364205,0.23443 0.363784,0.28236 0.363319,0.32499 0.362831,0.37828 0.362328,0.43687 0.361824,0.49015 0.361856,0.54717 0.360826,0.5999 0.360368,0.64891 0.359953,0.69529 0.359608,0.73309 0.359341,0.76346 0.359127,0.78531 0.359015,0.79703 0.359568,0.79703 0.359143,0.78477 0.359357,0.76293 0.36005,0.68197 0.360368,0.65104 0.360741,0.61267 0.361115,0.56475 0.361646,0.51145 0.362766,0.44751 0.362768,0.38366 0.363351,0.31962 0.363939,0.26104 0.36447,0.20246 0.364952,0.14916 0.365375,0.10639 0.365751,0.0688 0.366497,0.0537 0.365854,0.0536 0.36607,0.0537 h 0.36623 l 0.366814,-0.058 h 0.366389 0.366228 0.366124 l 0.366602,0.0538 0.36607,0.0537 0.365961,0.0537 0.366016,0.0537 0.366016,0.0537 h 0.366176 l 0.365857,0.0537 0.366549,0.0538 0.365963,0.0537 0.365909,0.0537 0.365909,0.0537 0.365857,0.0592 0.36575,0.0634 0.366068,0.0536 0.365218,0.12253 0.366228,0.0741 0.365697,0.0688 0.365215,0.12261 0.365591,0.0849 0.365537,0.0849 0.366016,0.0537 0.365643,0.0698 0.365749,0.0634 0.366603,0.0537 h 0.366441 l 0.367348,-0.11725 0.368254,-0.21313 0.367933,-0.18108 0.368095,-0.1972 0.368201,-0.20773 0.367987,-0.18647 0.368148,-0.13853 0.366814,-0.058 0.36575,0.0634 0.364098,0.25041 0.360901,0.58656 0.360635,0.61591 0.358397,0.86729 0.355841,1.14112 0.353815,1.4236 0.348914,1.8994 0.346144,2.2026 0.344385,2.3884 0.343212,2.5142 0.342735,2.5727 0.341188,2.7416 0.342947,2.6107 0.346357,2.1774 0.348755,1.9175 0.351949,1.5701 0.353231,1.4321 0.357278,0.9839 0.362873,0.3783 0.369266,-0.325 0.380453,-1.4821 0.387861,-2.3437 0.396064,-3.2446 0.404269,-4.1331 0.409439,-4.7019 0.418493,-5.6863 0.427658,-6.68422 0.438047,-7.82001 0.451154,-9.18398 0.458984,-10.10245 0.458826,-10.08276 0.464579,-10.71304 0.47369,-11.70397 0.481095,-12.51222 0.484718,-12.90911 0.486636,-13.116393 0.485411,-12.9235 0.480456,-12.44401 0.475501,-11.90645 0.468255,-11.11846 0.458773,-10.07956 0.447371,-8.83712 0.449235,-9.03693 0.41844,-5.68577 0.392548,-2.7970602 0.394574,-3.07943 0.374594,-0.8988101 0.343107,2.5317501 0.324458,4.5664202 0.31551,5.53606 0.302509,6.96228 0.296702,7.65597 0.282635,9.12537 0.271288,10.36139 0.262344,11.33957 0.255886,12.04389 0.252007,12.46853 0.250512,12.626233 0.249653,12.71786 0.253704,12.33479 0.259142,11.68693 0.266129,10.92667 0.273146,10.16002 0.279443,9.47325 0.287322,8.61284 0.29618,7.64956 0.306128,6.56541 0.31364,5.80446 0.319666,5.0908 0.325742,4.4273 0.331434,3.8083 0.33566,3.3464 0.33885,2.9926 0.34214,2.6355 0.34848,1.9448 0.35297,1.5182 0.35706,1.0103 0.36363,0.2929 0.36797,-0.1811 0.37235,-0.6591 0.37673,-1.1288 0.38184,-1.6894 0.38541,-2.0805 0.38903,-2.414 0.39165,-2.7619 0.39419,-3.0348 0.39597,-3.2329 0.39676,-3.3154 0.39685,-3.332 0.39613,-3.2504 0.39515,-3.08542 0.39265,-2.87048 0.39111,-2.70071 0.38765,-2.32442 0.38088,-1.58395 0.37939,-1.4241 0.37636,-1.09166 0.37282,-0.70911 0.36927,-0.25575 0.36677,-0.0532 0.36532,0.11721 0.36426,0.22909 0.36366,0.28771 0.36368,0.2877 0.36437,0.21844 0.36457,0.19179 0.36565,0.13852 0.36526,0.12255 0.3656,0.0799 h 0.36639 l 0.36713,-0.0906 0.36777,-0.15983 0.36831,-0.21845 0.36862,-0.25573 0.36938,-0.27171 0.36888,-0.28237 0.36884,-0.27705 0.36876,-0.26105 0.3685,-0.23975 0.36833,-0.21845 0.36802,-0.19179 0.36783,-0.16517 0.3682,-0.14918 0.3675,-0.13319 0.36745,-0.12252 0.36742,-0.11722 0.36733,-0.11721 0.36741,-0.11721 0.3674,-0.11721 0.36799,-0.11722 0.3674,-0.12253 0.36741,-0.11722 0.36735,-0.11721 0.36729,-0.11187 0.36724,-0.10123 0.3672,-0.0959 0.36711,-0.0853 0.36763,-0.0799 0.36697,-0.0746 0.36692,-0.0694 0.36693,-0.0691 0.36692,-0.0693 0.36698,-0.0746 0.36701,-0.0746 0.36709,-0.0852 0.3683,-0.15983 0.36816,-0.20246 0.36835,-0.22378 0.36794,-0.18113 0.36745,-0.12255 0.36751,-0.13318 0.36763,-0.14385 0.36771,-0.15451 0.36835,-0.16515 0.36789,-0.1705 0.36793,-0.18114 0.36804,-0.18646 0.36852,-0.23975 0.36938,-0.33033 0.36931,-0.32499 0.36922,-0.30901 0.36884,-0.2131 0.36688,-0.064 0.367,-0.0746 0.3672,-0.0959 0.36734,-0.11722 0.36757,-0.13318 0.36778,-0.15983 0.36851,-0.18115 0.36814,-0.20246 0.36838,-0.22376 0.36723,-0.10124 0.36683,-0.0585 0.3669,-0.0693 0.36705,-0.0799 0.36717,-0.0959 0.36794,-0.11721 0.36757,-0.13851 0.36773,-0.15983 0.36793,-0.17582 0.36807,-0.19179 0.3682,-0.2078 0.36833,-0.21843 0.3684,-0.22908 0.369,-0.23444 0.36846,-0.23441 0.36842,-0.23442 0.3684,-0.22909 0.36833,-0.22376 0.36824,-0.21312 0.3682,-0.20777 0.36816,-0.20247 0.36861,-0.1918 0.36806,-0.19181 0.36804,-0.19178 0.36802,-0.1918 0.36809,-0.19712 0.36822,-0.20246 0.36824,-0.21311 0.36836,-0.22377 0.36906,-0.23975 0.36868,-0.25573 0.36879,-0.27172 0.36888,-0.27702 0.36901,-0.29838 0.36911,-0.29834 0.36915,-0.31435 0.36974,-0.30899 0.36922,-0.31968 0.36921,-0.309 0.36917,-0.309 0.36909,-0.29836 0.36906,-0.29302 0.369,-0.28771 0.369,-0.29302 0.36953,-0.2877 0.369,-0.28769 0.36906,-0.29837 0.36916,-0.31434 0.36926,-0.31966 0.36943,-0.33565 0.36879,-0.26637 0.36777,-0.16518 0.36819,-0.14383 0.36858,-0.24509 0.36867,-0.26106 0.36865,-0.24508 0.36856,-0.24506 0.36853,-0.23976 0.36845,-0.23441 0.36849,-0.23444 0.36905,-0.23442 0.36856,-0.24507 0.36869,-0.25572 0.36879,-0.27171 0.36893,-0.28238 0.36911,-0.29835 0.36926,-0.31433 0.36938,-0.33034 0.37006,-0.3463 0.36964,-0.35696 0.3697,-0.36229 0.36968,-0.36761 0.36969,-0.36228 0.36964,-0.3623 0.37013,-0.41023 0.37118,-0.46352 0.37038,-0.44219 0.36922,-0.31434 0.36863,-0.25039 0.36877,-0.27173 0.36895,-0.28236 0.36916,-0.30901 0.36932,-0.32499 0.37008,-0.34631 0.36968,-0.36229 0.3698,-0.37828 0.36991,-0.38892 0.37,-0.39424 0.37002,-0.39958 0.37001,-0.39959 0.36995,-0.38893 0.37046,-0.38359 0.36974,-0.36761 0.36959,-0.35163 0.36941,-0.33566 0.36926,-0.31965 0.36911,-0.30901 0.369,-0.28771 0.3689,-0.28237 0.36932,-0.2717 0.36874,-0.26106 0.36872,-0.26106 0.36874,-0.26639 0.3688,-0.2664 0.36883,-0.27704 0.36894,-0.28237 0.36905,-0.30368 0.3689,-0.22378 0.36803,-0.18646 0.36804,-0.18647 0.36805,-0.18647 0.3681,-0.19179 0.36814,-0.20246 0.36821,-0.20778 0.36883,-0.21844 0.36843,-0.2291 0.36851,-0.24507 0.36868,-0.26106 0.36879,-0.27172 0.36893,-0.28237 0.36906,-0.29302 0.36916,-0.30368 0.3698,-0.31434 0.36932,-0.32498 0.36922,-0.31436 0.36867,-0.25571 0.36869,-0.25041 0.36867,-0.25573 0.36868,-0.2504 0.36863,-0.25575 0.36916,-0.24507 0.36782,-0.16517 0.36608,0.0533 0.36606,0.0532 h 0.36614 0.36622 0.36639 l 0.36658,-0.0532 0.36737,-0.0533 0.36696,-0.0746 0.36714,-0.0906 0.36731,-0.1065 0.36733,-0.11722 0.36688,-0.0586 h 0.36622 l 0.36633,0.004 0.36763,-0.08 0.36823,-0.21311 0.36817,-0.20244 0.36767,-0.14386 0.3667,-0.0534 0.36654,-0.0532 h 0.36645 l 0.36693,-0.003 0.36634,0.003 h 0.36623 0.36622 0.36624 l 0.36626,0.003 0.36634,-10e-4 h 0.36638 0.36699 0.3665 0.36653 l 0.36656,-0.0532 0.36656,-0.0532 h 0.36654 0.36655 l 0.36708,-0.0853 0.36773,-0.0959 0.36701,-0.0799 0.36689,-0.0586 0.36663,-0.0532 h 0.3665 l 0.36597,0.0532 0.36538,0.10651 0.36528,0.12255 0.36559,0.13852 0.36494,0.14917 0.36485,0.16517 0.36474,0.18113 0.36457,0.19713 0.36437,0.21311 0.3642,0.23444 0.36399,0.26104 0.36427,0.28237 0.36222,0.4422 0.36169,0.50614 0.36123,0.55409 0.36079,0.59989 0.36048,0.64041 0.3601,0.67608 0.36037,0.70381 0.35973,0.72296 0.35958,0.73684 0.35956,0.74107 0.35957,0.7395 0.35962,0.73311 0.35888,0.81461 0.35876,0.82526 0.35931,0.83007 0.35872,0.83113 0.35872,0.82899 0.35877,0.82633 0.35882,0.82155 0.35887,0.81513 0.35894,0.8109 0.35894,0.80554 0.35954,0.80024 0.35905,0.79542 0.35909,0.79225 0.35909,0.78849 0.35915,0.78638 0.35914,0.78318 0.35919,0.77944 0.35926,0.77466 0.35984,0.76879 0.35934,0.76081 0.35947,0.75175 0.35956,0.74107 0.35968,0.72724 0.35979,0.71445 0.36025,0.65853 0.3598,0.71497 0.36078,0.66171 0.36047,0.6388 0.36065,0.61854 0.36084,0.59564 0.36118,0.56156 0.36174,0.49548 0.36208,0.46351 0.36198,0.5333 0.36126,0.55089 0.36229,0.4422 0.3625,0.41556 0.36276,0.38895 0.36299,0.36226 0.36319,0.33566 0.36339,0.31433 0.36417,0.29303 0.36345,0.31434 0.36266,0.39959 0.3626,0.39957 0.36261,0.4049 0.36229,0.4422 0.36255,0.41025 0.36283,0.37826 0.36371,0.3463 0.36346,0.30901 0.36378,0.27172 0.36409,0.24508 0.36437,0.21843 0.364,0.25575 0.36394,0.26104 0.3641,0.24509 0.36479,0.22909 0.36431,0.22377 0.36437,0.21842 0.36435,0.21313 0.36436,0.2131 0.36438,0.21845 0.36436,0.21843 0.36431,0.22377 0.36484,0.22375 0.36431,0.22377 0.36507,0.13851 0.36568,0.0692 0.36586,0.0533 0.36598,0.0532 h 0.36617 0.36681 0.36639 0.36649 l 0.36511,0.13852 0.36531,0.11189 0.36555,0.0853 0.36587,0.0585 h 0.36606 l 0.36718,-0.0533 0.36811,-0.19712 0.3682,-0.20779 0.36724,-0.10125 h 0.36617 0.36623 l 0.36739,-0.12252 0.36777,-0.15984 0.36837,-0.15984 0.36773,-0.15449 h 0.36653 l 0.36588,0.0532 0.3658,0.0585 0.36568,0.0693 0.36565,0.0746 0.3656,0.0799 0.36617,0.0799 0.36563,0.0799 0.36571,0.0746 0.36581,0.064 0.36583,0.0532 0.36608,0.0532 h 0.36617 0.36639 l 0.36715,-0.0532 0.3668,-0.0532"
       id="polyline344"
       inkscape:connector-curvature="0"
       sodipodi:nodetypes="cccccccccccccccccccccccccccccccccccccccccccccccccccccccccccccccccccccccccccccccccccccccccccccccccccccccccccccccccccccccccccccccccccccccccccccccccccccccccccccccccccccccccccccccccccccccccccccccccccccccccccccccccccccccccccccccccccccccccccccccccccccccccccccccccccccccccccccccccccccccccccccccccccccccccccccccccccccccccccccccccccccccccccccccccccccccccccccccccccccccccccccccccccccccccccccccccccccccccccccccccccccccccccccccccccccccccccccccccccccccccccccccccccccccccccccccccccccccccccccccccccccccccccccccccccccccccccccccccccccccccccccccccccccccccccccccccccccccccccccccccccccccccccccccccccccccccccccccccccccccccccccccccccccccccccccccccccccccccccccccccccccccccccccccccc" />
  </g>
  <g
     inkscape:groupmode="layer"
     id="layer2"
     inkscape:label="Title"
     sodipodi:insensitive="true"
     style="display:inline">
    <g
       transform="translate(0,-796.3622)"
       id="g4008">
      <rect
         ry="4.9866271"
         rx="8.5320415"
         y="1018.6122"
         x="5.3825245"
         height="28.571423"
         width="245.59964"
         id="rect4006"
         style="fill:#ffffff;fill-opacity:0.81048387;stroke:none;stroke-width:1.31241262" />
      <text
         id="text3967"
         y="1045.3618"
         x="6.466146"
         style="font-style:normal;font-weight:normal;line-height:0%;font-family:sans-serif;letter-spacing:0px;word-spacing:0px;fill:#000000;fill-opacity:1;stroke:none"
         xml:space="preserve"><tspan
           style="font-style:normal;font-variant:normal;font-weight:normal;font-stretch:normal;font-size:37.33333206px;line-height:1.25;font-family:'Courier 10 Pitch';-inkscape-font-specification:'Courier 10 Pitch'"
           y="1045.3618"
           x="6.466146"
           id="tspan3969"
           sodipodi:role="line">aECG Viewer</tspan></text>
    </g>
  </g>
  <g
     inkscape:groupmode="layer"
     id="layer5"
     inkscape:label="Border"
     sodipodi:insensitive="true"
     style="display:inline">
    <rect
       style="fill:#ffffff;fill-opacity:0;stroke:#000000;stroke-width:5.32774353;stroke-miterlimit:4;stroke-dasharray:none;stroke-dashoffset:0;stroke-opacity:1"
       id="rect3764"
       width="250.71428"
       height="250.49332"
       x="2.8571429"
       y="3.0066319"
       ry="4.9866271"
       rx="4.9534998" />
  </g>
</svg>
